<svg width="500" height="500" viewBox="0 0 500 500" fill="none" xmlns="http://www.w3.org/2000/svg">
<rect width="500" height="500" rx="100" fill="white"/>
<path d="M289.21 188.918V171H416.082C425.978 171 434 179.022 434 188.918V188.918H361.679V325.804H341.531V188.918H289.21Z" fill="black"/>
<path d="M289.21 188.918V171H416.082C425.978 171 434 179.022 434 188.918V188.918H361.679V325.804H341.531V188.918H289.21Z" fill="url(#paint0_linear_197_188)"/>
<path d="M69 325.805H120.346L247.735 326C259.001 326 269.638 323.235 278.087 317.86C286.591 312.484 293.198 304.964 297.911 295.299C302.677 285.634 305.06 274.339 305.06 261.416C305.06 248.385 302.677 237.009 297.911 227.29C293.198 217.571 286.591 210.023 278.087 204.648C269.638 199.272 259.78 196.584 248.515 196.584C237.249 196.584 227.364 199.272 218.861 204.648C210.412 210.023 203.804 217.571 199.038 227.29C194.326 237.009 191.97 248.385 191.97 261.416C191.97 274.339 194.326 285.634 199.038 295.299L215.124 284.71C212.47 277.543 211.143 269.778 211.143 261.416C211.143 253.055 212.47 245.263 215.124 238.041C217.778 230.819 221.867 224.982 227.392 220.53C232.916 216.077 239.957 213.851 248.515 213.851C257.072 213.851 264.113 216.077 269.638 220.53C275.163 224.982 279.252 230.819 281.906 238.041C284.56 245.263 285.887 253.055 285.887 261.416C285.887 269.778 284.56 277.543 281.906 284.71C279.252 291.878 275.163 297.661 269.638 302.059C264.113 306.457 257.414 308.506 248.856 308.506C248.856 308.506 132.803 307.886 119.046 307.886H89.1483V186.918H102.732C115.731 186.918 126.591 189.552 135.311 194.819C144.031 200.032 150.584 207.525 154.971 217.298L171.87 207.606C165.75 195.172 156.948 185.642 145.466 179.018C133.984 172.339 120.172 169 104.032 169H69V325.805Z" fill="black"/>
<path d="M69 325.805H120.346L247.735 326C259.001 326 269.638 323.235 278.087 317.86C286.591 312.484 293.198 304.964 297.911 295.299C302.677 285.634 305.06 274.339 305.06 261.416C305.06 248.385 302.677 237.009 297.911 227.29C293.198 217.571 286.591 210.023 278.087 204.648C269.638 199.272 259.78 196.584 248.515 196.584C237.249 196.584 227.364 199.272 218.861 204.648C210.412 210.023 203.804 217.571 199.038 227.29C194.326 237.009 191.97 248.385 191.97 261.416C191.97 274.339 194.326 285.634 199.038 295.299L215.124 284.71C212.47 277.543 211.143 269.778 211.143 261.416C211.143 253.055 212.47 245.263 215.124 238.041C217.778 230.819 221.867 224.982 227.392 220.53C232.916 216.077 239.957 213.851 248.515 213.851C257.072 213.851 264.113 216.077 269.638 220.53C275.163 224.982 279.252 230.819 281.906 238.041C284.56 245.263 285.887 253.055 285.887 261.416C285.887 269.778 284.56 277.543 281.906 284.71C279.252 291.878 275.163 297.661 269.638 302.059C264.113 306.457 257.414 308.506 248.856 308.506C248.856 308.506 132.803 307.886 119.046 307.886H89.1483V186.918H102.732C115.731 186.918 126.591 189.552 135.311 194.819C144.031 200.032 150.584 207.525 154.971 217.298L171.87 207.606C165.75 195.172 156.948 185.642 145.466 179.018C133.984 172.339 120.172 169 104.032 169H69V325.805Z" fill="url(#paint1_linear_197_188)"/>
<defs>
<linearGradient id="paint0_linear_197_188" x1="53.7967" y1="157.894" x2="423.53" y2="180.337" gradientUnits="userSpaceOnUse">
<stop stop-color="#790699"/>
<stop offset="0.173077" stop-color="#320699"/>
<stop offset="0.620192" stop-color="#3D64AC"/>
<stop offset="0.969649" stop-color="#28BFB2"/>
</linearGradient>
<linearGradient id="paint1_linear_197_188" x1="53.7967" y1="157.894" x2="423.53" y2="180.337" gradientUnits="userSpaceOnUse">
<stop stop-color="#790699"/>
<stop offset="0.173077" stop-color="#320699"/>
<stop offset="0.620192" stop-color="#3D64AC"/>
<stop offset="0.969649" stop-color="#28BFB2"/>
</linearGradient>
</defs>
</svg>
