<svg width="25" height="24" viewBox="0 0 25 24" fill="none" xmlns="http://www.w3.org/2000/svg">
<path d="M12.5 17.5C13.75 17.5 14.8127 17.0627 15.688 16.188C16.5633 15.3133 17.0007 14.2507 17 13C16.9993 11.7493 16.562 10.687 15.688 9.813C14.814 8.939 13.7513 8.50133 12.5 8.5C11.2487 8.49867 10.1863 8.93633 9.313 9.813C8.43967 10.6897 8.002 11.752 8 13C7.998 14.248 8.43567 15.3107 9.313 16.188C10.1903 17.0653 11.2527 17.5027 12.5 17.5ZM12.5 15.5C11.8 15.5 11.2083 15.2583 10.725 14.775C10.2417 14.2917 10 13.7 10 13C10 12.3 10.2417 11.7083 10.725 11.225C11.2083 10.7417 11.8 10.5 12.5 10.5C13.2 10.5 13.7917 10.7417 14.275 11.225C14.7583 11.7083 15 12.3 15 13C15 13.7 14.7583 14.2917 14.275 14.775C13.7917 15.2583 13.2 15.5 12.5 15.5ZM4.5 21C3.95 21 3.47933 20.8043 3.088 20.413C2.69667 20.0217 2.50067 19.5507 2.5 19V7C2.5 6.45 2.696 5.97933 3.088 5.588C3.48 5.19667 3.95067 5.00067 4.5 5H7.65L8.9 3.65C9.08333 3.45 9.30433 3.29167 9.563 3.175C9.82167 3.05833 10.0923 3 10.375 3H14.625C14.9083 3 15.1793 3.05833 15.438 3.175C15.6967 3.29167 15.9173 3.45 16.1 3.65L17.35 5H20.5C21.05 5 21.521 5.196 21.913 5.588C22.305 5.98 22.5007 6.45067 22.5 7V19C22.5 19.55 22.3043 20.021 21.913 20.413C21.5217 20.805 21.0507 21.0007 20.5 21H4.5ZM4.5 19H20.5V7H16.45L14.625 5H10.375L8.55 7H4.5V19Z" fill="#6D6D6D"/>
</svg>
