<svg width="25" height="25" viewBox="0 0 25 25" fill="none" xmlns="http://www.w3.org/2000/svg">
<path d="M7.5 10.0982C7.5 9.39091 7.78099 8.71255 8.28115 8.21239C8.78131 7.71223 9.45967 7.43124 10.167 7.43124H18.833C19.1832 7.43124 19.53 7.50023 19.8536 7.63426C20.1772 7.76829 20.4712 7.96474 20.7189 8.21239C20.9665 8.46004 21.163 8.75405 21.297 9.07763C21.431 9.4012 21.5 9.74801 21.5 10.0982V18.7642C21.5 19.1145 21.431 19.4613 21.297 19.7849C21.163 20.1084 20.9665 20.4024 20.7189 20.6501C20.4712 20.8978 20.1772 21.0942 19.8536 21.2282C19.53 21.3623 19.1832 21.4312 18.833 21.4312H10.167C9.81676 21.4312 9.46996 21.3623 9.14638 21.2282C8.82281 21.0942 8.5288 20.8978 8.28115 20.6501C8.03349 20.4024 7.83704 20.1084 7.70301 19.7849C7.56898 19.4613 7.5 19.1145 7.5 18.7642V10.0982Z" stroke="#888888" stroke-width="2" stroke-linecap="round" stroke-linejoin="round"/>
<path d="M4.512 17.1682C4.205 16.9938 3.94965 16.7412 3.7719 16.4361C3.59415 16.131 3.50034 15.7843 3.5 15.4312V5.43124C3.5 4.33124 4.4 3.43124 5.5 3.43124H15.5C16.25 3.43124 16.658 3.81624 17 4.43124" stroke="#888888" stroke-width="2" stroke-linecap="round" stroke-linejoin="round"/>
</svg>
