<svg width="18" height="19" viewBox="0 0 18 19" fill="none" xmlns="http://www.w3.org/2000/svg">
<path d="M14 9.21563C14 8.17813 13.725 7.23137 13.175 6.37537C12.625 5.51937 11.8875 4.87862 10.9625 4.45312C10.775 4.36562 10.6375 4.23137 10.55 4.05037C10.4625 3.86937 10.45 3.68487 10.5125 3.49687C10.5875 3.29687 10.7188 3.15313 10.9062 3.06562C11.0938 2.97812 11.2875 2.97812 11.4875 3.06562C12.7 3.60312 13.672 4.42188 14.4035 5.52188C15.135 6.62188 15.5005 7.85313 15.5 9.21563C15.4995 10.5781 15.1338 11.8094 14.4028 12.9094C13.6718 14.0094 12.7 14.8281 11.4875 15.3656C11.2875 15.4531 11.0938 15.4531 10.9062 15.3656C10.7188 15.2781 10.5875 15.1344 10.5125 14.9344C10.45 14.7469 10.4625 14.5626 10.55 14.3816C10.6375 14.2006 10.775 14.0661 10.9625 13.9781C11.8875 13.5531 12.625 12.9126 13.175 12.0566C13.725 11.2006 14 10.2536 14 9.21563ZM5 11.4844H2.75C2.5375 11.4844 2.3595 11.4124 2.216 11.2684C2.0725 11.1244 2.0005 10.9464 2 10.7344V7.73438C2 7.52187 2.072 7.34387 2.216 7.20038C2.36 7.05688 2.538 6.98487 2.75 6.98438H5L7.475 4.50937C7.7125 4.27187 7.9845 4.21862 8.291 4.34962C8.5975 4.48062 8.7505 4.71513 8.75 5.05313V13.4156C8.75 13.7531 8.597 13.9876 8.291 14.1191C7.985 14.2506 7.713 14.1974 7.475 13.9594L5 11.4844ZM12.125 9.23438C12.125 9.74687 12.0157 10.2314 11.7972 10.6879C11.5787 11.1444 11.2755 11.5286 10.8875 11.8406C10.75 11.9406 10.6095 11.9626 10.466 11.9066C10.3225 11.8506 10.2505 11.7349 10.25 11.5594V6.87188C10.25 6.69688 10.322 6.58137 10.466 6.52537C10.61 6.46937 10.7505 6.49113 10.8875 6.59063C11.275 6.90313 11.5782 7.29062 11.7972 7.75312C12.0162 8.21562 12.1255 8.70937 12.125 9.23438ZM7.25 11.5969V6.87188L5.6375 8.48438H3.5V9.98438H5.6375L7.25 11.5969Z" fill="black"/>
</svg>
