<svg width="241" height="312" viewBox="0 0 241 312" fill="none" xmlns="http://www.w3.org/2000/svg">
<g filter="url(#filter0_d_169_30)">
<rect x="40" y="36" width="161" height="232" rx="8" fill="#FFE7E6"/>
<path d="M119.125 159.879L139.33 180.084C140.607 181.361 142.233 182 144.207 182C146.181 182 147.807 181.361 149.084 180.084C150.361 178.807 151 177.181 151 175.207C151 173.233 150.361 171.607 149.084 170.33L128.879 150.125L149.084 129.92C150.361 128.643 151 127.017 151 125.043C151 123.069 150.361 121.443 149.084 120.166C147.807 118.889 146.181 118.25 144.207 118.25C142.233 118.25 140.607 118.889 139.33 120.166L119.125 140.371L98.9201 120.166C97.6428 118.889 96.0171 118.25 94.043 118.25C92.069 118.25 90.4433 118.889 89.166 120.166C87.8887 121.443 87.25 123.069 87.25 125.043C87.25 127.017 87.8887 128.643 89.166 129.92L109.371 150.125L89.166 170.33C87.8887 171.607 87.25 173.233 87.25 175.207C87.25 177.181 87.8887 178.807 89.166 180.084C90.4433 181.361 92.069 182 94.043 182C96.0171 182 97.6428 181.361 98.9201 180.084L119.125 159.879Z" fill="#FF3B30"/>
</g>
<defs>
<filter id="filter0_d_169_30" x="0" y="0" width="241" height="312" filterUnits="userSpaceOnUse" color-interpolation-filters="sRGB">
<feFlood flood-opacity="0" result="BackgroundImageFix"/>
<feColorMatrix in="SourceAlpha" type="matrix" values="0 0 0 0 0 0 0 0 0 0 0 0 0 0 0 0 0 0 127 0" result="hardAlpha"/>
<feOffset dy="4"/>
<feGaussianBlur stdDeviation="20"/>
<feComposite in2="hardAlpha" operator="out"/>
<feColorMatrix type="matrix" values="0 0 0 0 0 0 0 0 0 0 0 0 0 0 0 0 0 0 0.1 0"/>
<feBlend mode="normal" in2="BackgroundImageFix" result="effect1_dropShadow_169_30"/>
<feBlend mode="normal" in="SourceGraphic" in2="effect1_dropShadow_169_30" result="shape"/>
</filter>
</defs>
</svg>
