<svg width="80" height="35" viewBox="0 0 80 35" fill="none" xmlns="http://www.w3.org/2000/svg">
<path d="M48.2653 4.44038V0.445815H76.0054C78.2116 0.445815 80 2.23424 80 4.44038H64.1489V34.9564H59.7328V4.44038H48.2653Z" fill="black"/>
<path d="M48.2653 4.44038V0.445815H76.0054C78.2116 0.445815 80 2.23424 80 4.44038H64.1489V34.9564H59.7328V4.44038H48.2653Z" fill="url(#paint0_linear_49_125)"/>
<path d="M0 34.9565H11.2538L39.1748 35C41.644 35 43.9754 34.3837 45.8273 33.1853C47.6911 31.9869 49.1394 30.3104 50.1722 28.1558C51.2168 26.0011 51.7392 23.4833 51.7392 20.6024C51.7392 17.6973 51.2168 15.1613 50.1722 12.9946C49.1394 10.8278 47.6911 9.14529 45.8273 7.94692C43.9754 6.74855 41.8149 6.14936 39.3457 6.14936C36.8765 6.14936 34.71 6.74855 32.8462 7.94692C30.9944 9.14529 29.5461 10.8278 28.5014 12.9946C27.4686 15.1613 26.9522 17.6973 26.9522 20.6024C26.9522 23.4833 27.4686 26.0011 28.5014 28.1558L32.0271 25.7954C31.4455 24.1975 31.1546 22.4666 31.1546 20.6024C31.1546 18.7383 31.4455 17.0013 32.0271 15.3913C32.6088 13.7814 33.5051 12.4801 34.716 11.4875C35.9268 10.495 37.4701 9.99867 39.3457 9.99867C41.2213 9.99867 42.7646 10.495 43.9754 11.4875C45.1863 12.4801 46.0826 13.7814 46.6643 15.3913C47.2459 17.0013 47.5368 18.7383 47.5368 20.6024C47.5368 22.4666 47.2459 24.1975 46.6643 25.7954C46.0826 27.3932 45.1863 28.6823 43.9754 29.6628C42.7646 30.6433 41.2962 31.1001 39.4205 31.1001C39.4205 31.1001 13.9842 30.9619 10.9689 30.9619H4.41606V3.99457H7.39335C10.2424 3.99457 12.6226 4.58165 14.5338 5.75581C16.4451 6.91786 17.8815 8.58832 18.8431 10.7672L22.5469 8.60647C21.2054 5.83449 19.2764 3.7101 16.7597 2.23333C14.243 0.744442 11.2159 0 7.67825 0H0V34.9565Z" fill="black"/>
<path d="M0 34.9565H11.2538L39.1748 35C41.644 35 43.9754 34.3837 45.8273 33.1853C47.6911 31.9869 49.1394 30.3104 50.1722 28.1558C51.2168 26.0011 51.7392 23.4833 51.7392 20.6024C51.7392 17.6973 51.2168 15.1613 50.1722 12.9946C49.1394 10.8278 47.6911 9.14529 45.8273 7.94692C43.9754 6.74855 41.8149 6.14936 39.3457 6.14936C36.8765 6.14936 34.71 6.74855 32.8462 7.94692C30.9944 9.14529 29.5461 10.8278 28.5014 12.9946C27.4686 15.1613 26.9522 17.6973 26.9522 20.6024C26.9522 23.4833 27.4686 26.0011 28.5014 28.1558L32.0271 25.7954C31.4455 24.1975 31.1546 22.4666 31.1546 20.6024C31.1546 18.7383 31.4455 17.0013 32.0271 15.3913C32.6088 13.7814 33.5051 12.4801 34.716 11.4875C35.9268 10.495 37.4701 9.99867 39.3457 9.99867C41.2213 9.99867 42.7646 10.495 43.9754 11.4875C45.1863 12.4801 46.0826 13.7814 46.6643 15.3913C47.2459 17.0013 47.5368 18.7383 47.5368 20.6024C47.5368 22.4666 47.2459 24.1975 46.6643 25.7954C46.0826 27.3932 45.1863 28.6823 43.9754 29.6628C42.7646 30.6433 41.2962 31.1001 39.4205 31.1001C39.4205 31.1001 13.9842 30.9619 10.9689 30.9619H4.41606V3.99457H7.39335C10.2424 3.99457 12.6226 4.58165 14.5338 5.75581C16.4451 6.91786 17.8815 8.58832 18.8431 10.7672L22.5469 8.60647C21.2054 5.83449 19.2764 3.7101 16.7597 2.23333C14.243 0.744442 11.2159 0 7.67825 0H0V34.9565Z" fill="url(#paint1_linear_49_125)"/>
<defs>
<linearGradient id="paint0_linear_49_125" x1="-3.33223" y1="-2.47589" x2="77.7152" y2="2.36085" gradientUnits="userSpaceOnUse">
<stop stop-color="#790699"/>
<stop offset="0.173077" stop-color="#320699"/>
<stop offset="0.620192" stop-color="#3D64AC"/>
<stop offset="0.969649" stop-color="#28BFB2"/>
</linearGradient>
<linearGradient id="paint1_linear_49_125" x1="-3.33223" y1="-2.47589" x2="77.7152" y2="2.36085" gradientUnits="userSpaceOnUse">
<stop stop-color="#790699"/>
<stop offset="0.173077" stop-color="#320699"/>
<stop offset="0.620192" stop-color="#3D64AC"/>
<stop offset="0.969649" stop-color="#28BFB2"/>
</linearGradient>
</defs>
</svg>
