<svg width="14" height="13" viewBox="0 0 14 13" fill="none" xmlns="http://www.w3.org/2000/svg">
<path d="M12 6.21563C12 5.17813 11.725 4.23137 11.175 3.37537C10.625 2.51937 9.8875 1.87862 8.9625 1.45312C8.775 1.36562 8.6375 1.23137 8.55 1.05037C8.4625 0.869375 8.45 0.684875 8.5125 0.496875C8.5875 0.296875 8.71875 0.153125 8.90625 0.065625C9.09375 -0.021875 9.2875 -0.021875 9.4875 0.065625C10.7 0.603125 11.672 1.42188 12.4035 2.52188C13.135 3.62188 13.5005 4.85313 13.5 6.21563C13.4995 7.57813 13.1338 8.80937 12.4028 9.90937C11.6718 11.0094 10.7 11.8281 9.4875 12.3656C9.2875 12.4531 9.09375 12.4531 8.90625 12.3656C8.71875 12.2781 8.5875 12.1344 8.5125 11.9344C8.45 11.7469 8.4625 11.5626 8.55 11.3816C8.6375 11.2006 8.775 11.0661 8.9625 10.9781C9.8875 10.5531 10.625 9.91262 11.175 9.05662C11.725 8.20062 12 7.25363 12 6.21563ZM3 8.48438H0.75C0.5375 8.48438 0.3595 8.41237 0.216 8.26838C0.0725001 8.12438 0.0005 7.94637 0 7.73438V4.73438C0 4.52187 0.0720001 4.34387 0.216 4.20038C0.36 4.05688 0.538 3.98487 0.75 3.98438H3L5.475 1.50937C5.7125 1.27187 5.9845 1.21862 6.291 1.34962C6.5975 1.48062 6.7505 1.71513 6.75 2.05313V10.4156C6.75 10.7531 6.597 10.9876 6.291 11.1191C5.985 11.2506 5.713 11.1974 5.475 10.9594L3 8.48438ZM10.125 6.23438C10.125 6.74687 10.0157 7.23137 9.79725 7.68787C9.57875 8.14437 9.2755 8.52863 8.8875 8.84063C8.75 8.94063 8.6095 8.96262 8.466 8.90662C8.3225 8.85063 8.2505 8.73488 8.25 8.55938V3.87188C8.25 3.69688 8.322 3.58137 8.466 3.52537C8.61 3.46937 8.7505 3.49113 8.8875 3.59063C9.275 3.90313 9.57825 4.29062 9.79725 4.75312C10.0162 5.21562 10.1255 5.70937 10.125 6.23438ZM5.25 8.59687V3.87188L3.6375 5.48438H1.5V6.98438H3.6375L5.25 8.59687Z" fill="black"/>
</svg>
